<?xml version="1.0" encoding="UTF-8" standalone="no"?>
<svg width="32px" height="32px" viewBox="0 0 32 32" version="1.1" xmlns="http://www.w3.org/2000/svg" xmlns:xlink="http://www.w3.org/1999/xlink">
    <!-- Generator: Sketch 44.1 (41455) - http://www.bohemiancoding.com/sketch -->
    <title>Cross</title>
    <desc>Created with Sketch.</desc>
    <defs></defs>
    <g id="Page-2-Copy" stroke="none" stroke-width="1" fill="none" fill-rule="evenodd">
        <g id="33" stroke="#ffffff">
            <path d="M19.748841,21.1630546 L29.8137366,31.2279502 C30.2042454,31.618459 30.8346751,31.621169 31.2279221,31.2279221 C31.6184464,30.8373978 31.6135011,30.1992875 31.2279502,29.8137366 L21.1630546,19.748841 C22.9328431,17.6581587 24,14.9537033 24,12 C24,5.372583 18.627417,0 12,0 C5.372583,0 0,5.372583 0,12 C0,18.627417 5.372583,24 12,24 C14.9537033,24 17.6581587,22.9328431 19.748841,21.1630546 L19.748841,21.1630546 L19.748841,21.1630546 Z M2,12 C2,6.4771525 6.4771525,2 12,2 C17.5228475,2 22,6.4771525 22,12 C22,17.5228475 17.5228475,22 12,22 C6.4771525,22 2,17.5228475 2,12 L2,12 Z" id="Rectangle-403" stroke="none" fill="#95909E"></path>
            <path d="M10.5857864,12 L7.7591082,9.17332176 C7.37252419,8.78673776 7.36683502,8.1478836 7.75735931,7.75735931 C8.15060627,7.36411236 8.78183159,7.36761802 9.17332176,7.7591082 L12,10.5857864 L14.8266782,7.7591082 C15.2132622,7.37252419 15.8521164,7.36683502 16.2426407,7.75735931 C16.6358876,8.15060627 16.632382,8.78183159 16.2408918,9.17332176 L13.4142136,12 L16.2408918,14.8266782 C16.6274758,15.2132622 16.633165,15.8521164 16.2426407,16.2426407 C15.8493937,16.6358876 15.2181684,16.632382 14.8266782,16.2408918 L12,13.4142136 L9.17332176,16.2408918 C8.78673776,16.6274758 8.1478836,16.633165 7.75735931,16.2426407 C7.36411236,15.8493937 7.36761802,15.2181684 7.7591082,14.8266782 L10.5857864,12 L10.5857864,12 Z" id="Rectangle-412" stroke="none" fill="#ffffff"></path>
        </g>
    </g>
</svg>