<svg width="115" height="115" viewBox="0 0 115 115" fill="none" xmlns="http://www.w3.org/2000/svg">
<path d="M47.9154 90.625C24.3737 90.625 5.20703 71.4584 5.20703 47.9167C5.20703 24.375 24.3737 5.20837 47.9154 5.20837C71.457 5.20837 90.6237 24.375 90.6237 47.9167C90.6237 71.4584 71.457 90.625 47.9154 90.625ZM47.9154 11.4584C27.7904 11.4584 11.457 27.8334 11.457 47.9167C11.457 68 27.7904 84.375 47.9154 84.375C68.0404 84.375 84.3737 68 84.3737 47.9167C84.3737 27.8334 68.0404 11.4584 47.9154 11.4584Z" fill="white"/>
<path d="M111.668 114.792C110.876 114.792 110.084 114.5 109.459 113.875L81.126 85.5417C79.9176 84.3333 79.9176 82.3333 81.126 81.125C82.3343 79.9167 84.3343 79.9167 85.5426 81.125L113.876 109.458C115.084 110.667 115.084 112.667 113.876 113.875C113.251 114.5 112.459 114.792 111.668 114.792Z" fill="white"/>
<path d="M62.4479 65.5729C61.6563 65.5729 60.8646 65.2813 60.2396 64.6563L31.9062 36.3229C30.6979 35.1146 30.6979 33.1146 31.9062 31.9062C33.1146 30.6979 35.1146 30.6979 36.3229 31.9062L64.6563 60.2396C65.8646 61.4479 65.8646 63.4479 64.6563 64.6563C64.0313 65.2813 63.2396 65.5729 62.4479 65.5729Z" fill="white"/>
<path d="M30.9945 62.4532C30.9945 61.6615 31.2861 60.8698 31.9111 60.2448L60.2445 31.9115C61.4528 30.7032 63.4528 30.7032 64.6611 31.9115C65.8695 33.1198 65.8695 35.1198 64.6611 36.3282L36.3278 64.6615C35.1195 65.8698 33.1195 65.8698 31.9111 64.6615C31.2861 64.0365 30.9945 63.2448 30.9945 62.4532Z" fill="white"/>
</svg>
