<svg width="22" height="22" viewBox="0 0 22 22" fill="none" xmlns="http://www.w3.org/2000/svg">
<path d="M10.9998 11.6875C8.094 11.6875 5.729 9.32251 5.729 6.41668C5.729 3.51084 8.094 1.14584 10.9998 1.14584C13.9057 1.14584 16.2707 3.51084 16.2707 6.41668C16.2707 9.32251 13.9057 11.6875 10.9998 11.6875ZM10.9998 2.52084C8.85484 2.52084 7.104 4.27168 7.104 6.41668C7.104 8.56168 8.85484 10.3125 10.9998 10.3125C13.1448 10.3125 14.8957 8.56168 14.8957 6.41668C14.8957 4.27168 13.1448 2.52084 10.9998 2.52084Z" fill="white"/>
<path d="M18.8743 20.8542C18.4985 20.8542 18.1868 20.5425 18.1868 20.1667C18.1868 17.0042 14.9601 14.4375 11.0001 14.4375C7.04014 14.4375 3.81348 17.0042 3.81348 20.1667C3.81348 20.5425 3.50181 20.8542 3.12598 20.8542C2.75014 20.8542 2.43848 20.5425 2.43848 20.1667C2.43848 16.2525 6.27931 13.0625 11.0001 13.0625C15.721 13.0625 19.5618 16.2525 19.5618 20.1667C19.5618 20.5425 19.2501 20.8542 18.8743 20.8542Z" fill="white"/>
</svg>
