<?xml version="1.0" encoding="UTF-8"?>
<svg xmlns="http://www.w3.org/2000/svg" xmlns:xlink="http://www.w3.org/1999/xlink" version="1.1" viewBox="0 0 1200 1200">
  <defs>
    <style>
      .cls-1 {
        fill: #2fc0d6;
      }

      .cls-1, .cls-2, .cls-3, .cls-4, .cls-5, .cls-6, .cls-7, .cls-8, .cls-9, .cls-10, .cls-11, .cls-12, .cls-13, .cls-14, .cls-15, .cls-16, .cls-17, .cls-18, .cls-19, .cls-20, .cls-21, .cls-22, .cls-23, .cls-24, .cls-25, .cls-26, .cls-27, .cls-28, .cls-29, .cls-30, .cls-31, .cls-32, .cls-33, .cls-34, .cls-35, .cls-36, .cls-37, .cls-38 {
        stroke-width: 0px;
      }

      .cls-2 {
        fill: #1e7b89;
      }

      .cls-3 {
        fill: #2baec2;
      }

      .cls-4 {
        fill: #30c6dc;
      }

      .cls-5 {
        fill: #6decff;
      }

      .cls-6 {
        fill: #27a0b3;
      }

      .cls-39 {
        clip-path: url(#clippath);
      }

      .cls-7 {
        fill: none;
      }

      .cls-8 {
        fill: #37678c;
      }

      .cls-9 {
        fill: #68ebff;
      }

      .cls-10 {
        fill: #34d3eb;
      }

      .cls-11 {
        fill: #31cae0;
      }

      .cls-12 {
        fill: #2cb3c7;
      }

      .cls-40 {
        mix-blend-mode: multiply;
      }

      .cls-13 {
        fill: #30c5dc;
      }

      .cls-14 {
        fill: #f1f2f2;
      }

      .cls-41 {
        clip-path: url(#clippath-1);
      }

      .cls-42 {
        clip-path: url(#clippath-4);
      }

      .cls-43 {
        clip-path: url(#clippath-3);
      }

      .cls-44 {
        clip-path: url(#clippath-2);
      }

      .cls-45 {
        clip-path: url(#clippath-7);
      }

      .cls-46 {
        clip-path: url(#clippath-8);
      }

      .cls-47 {
        clip-path: url(#clippath-6);
      }

      .cls-48 {
        clip-path: url(#clippath-5);
      }

      .cls-49 {
        clip-path: url(#clippath-9);
      }

      .cls-50 {
        clip-path: url(#clippath-12);
      }

      .cls-51 {
        clip-path: url(#clippath-10);
      }

      .cls-52 {
        clip-path: url(#clippath-11);
      }

      .cls-15 {
        fill: #2bb1c5;
      }

      .cls-16 {
        fill: #38e5ff;
      }

      .cls-17 {
        fill: #1f808f;
      }

      .cls-18 {
        fill: #32cee6;
      }

      .cls-19 {
        fill: #5ae9ff;
      }

      .cls-20 {
        fill: #1d7785;
      }

      .cls-21 {
        fill: #238e9e;
      }

      .cls-22 {
        fill: #35d7f0;
      }

      .cls-23 {
        fill: #36dcf5;
      }

      .cls-24 {
        fill: #50e8ff;
      }

      .cls-25 {
        fill: #28a5b8;
      }

      .cls-26 {
        fill: #2597a8;
      }

      .cls-27 {
        fill: #2493a3;
      }

      .cls-28 {
        fill: #2ebcd1;
      }

      .cls-29 {
        fill: #61eaff;
      }

      .cls-30 {
        fill: #29a9bd;
      }

      .cls-31 {
        fill: #30c5db;
      }

      .cls-32 {
        fill: #208594;
      }

      .cls-53 {
        isolation: isolate;
      }

      .cls-33 {
        fill: #228999;
      }

      .cls-34 {
        fill: #269cad;
      }

      .cls-35 {
        fill: #2db7cc;
      }

      .cls-36 {
        fill: #1e7a88;
      }

      .cls-37 {
        fill: #1e7c8a;
      }

      .cls-38 {
        fill: #37e0fa;
      }
    </style>
    <clipPath id="clippath">
      <path class="cls-7" d="M492.7,71.9l108.2-62.9c.3-.2.7-.1,1.2.2l-108.2,62.9c-.5-.3-.9-.3-1.2-.2Z"/>
    </clipPath>
    <clipPath id="clippath-1">
      <path class="cls-7" d="M1167.5,865.1l-108.2,62.9c.4-.2.5-.7.5-1.6l108.2-62.9c0,.9-.2,1.4-.5,1.6Z"/>
    </clipPath>
    <clipPath id="clippath-2">
      <path class="cls-7" d="M1058.3,802.4l108.2-62.9c1.3.7,1.9,1.8,1.9,3.1l-108.2,62.9c0-1.3-.6-2.4-1.9-3.1Z"/>
    </clipPath>
    <clipPath id="clippath-3">
      <path class="cls-7" d="M1059.4,398.5l108.2-62.9c1.3,1.1,1.9,2.3,1.9,3.6l-108.2,62.9c0-1.3-.6-2.5-1.9-3.6Z"/>
    </clipPath>
    <clipPath id="clippath-4">
      <path class="cls-7" d="M33.9,338.1l108.2-62.9c.3-.2.7-.1,1.2.1l-108.2,62.9c-.5-.3-.9-.3-1.2-.1Z"/>
    </clipPath>
    <clipPath id="clippath-5">
      <path class="cls-7" d="M708.7,1131.3l-108.2,62.9c.4-.2.5-.7.5-1.6l108.2-62.9c0,.9-.2,1.4-.5,1.6Z"/>
    </clipPath>
    <clipPath id="clippath-6">
      <path class="cls-7" d="M599.5,1068.7l108.2-62.9c1.3.7,1.9,1.8,1.9,3.1l-108.2,62.9c0-1.3-.7-2.4-1.9-3.1Z"/>
    </clipPath>
    <clipPath id="clippath-7">
      <path class="cls-7" d="M600.6,664.8l108.2-62.9c1.3,1,1.9,2.3,1.9,3.6l-108.2,62.9c0-1.3-.7-2.5-1.9-3.6Z"/>
    </clipPath>
    <clipPath id="clippath-8">
      <path class="cls-7" d="M1060.2,678.1l108.2,62.9c-.3-.2-.8,0-1.5.3l-108.2-62.9c.7-.4,1.2-.5,1.5-.3Z"/>
    </clipPath>
    <clipPath id="clippath-9">
      <path class="cls-7" d="M1058.9,274.5l108.2,62.9c-.3-.2-.8-.2-1.4,0l-108.2-62.9c.6-.2,1.1-.2,1.4,0Z"/>
    </clipPath>
    <clipPath id="clippath-10">
      <path class="cls-7" d="M600.3,1193.2l-108.2-62.9c-.4-.2-.5-.7-.5-1.6l108.2,62.9c0,.9.2,1.4.5,1.6Z"/>
    </clipPath>
    <clipPath id="clippath-11">
      <path class="cls-7" d="M599.2,789.8l-108.2-62.9c-.4-.2-.5-.7-.5-1.6l108.2,62.9c0,.9.2,1.4.5,1.6Z"/>
    </clipPath>
    <clipPath id="clippath-12">
      <path class="cls-7" d="M598.3,667.4l-108.2-62.9c.2-1.8.9-3,1.9-3.6l108.2,62.9c-1,.6-1.7,1.8-1.9,3.6Z"/>
    </clipPath>
  </defs>
  <g class="cls-53">
    <g id="Layer_1" data-name="Layer 1">
      <g>
        <polygon class="cls-31" points="332.6 690.2 224.4 627.4 602.1 411.9 602.3 455.4 602.5 539.4 332.6 690.2"/>
        <path class="cls-31" d="M138.4,803.5c.1-.2.2-.3.4-.5.3-.5.7-1.1,1.2-1.7,0-.1.1-.2.2-.3.5-.8,1.1-1.6,1.8-2.5.2-.3.4-.6.6-.9.5-.7,1-1.4,1.5-2.2.3-.4.6-.9,1-1.3.5-.7,1.1-1.4,1.6-2.2.4-.5.8-1.1,1.2-1.7.6-.8,1.1-1.6,1.8-2.4.5-.6,1-1.3,1.5-2,.6-.9,1.3-1.7,2-2.6.5-.7,1-1.4,1.6-2.2.7-.9,1.4-1.9,2.2-2.9.6-.8,1.2-1.6,1.9-2.5.7-1,1.5-2.1,2.3-3.1.6-.9,1.3-1.7,2-2.6.9-1.2,1.8-2.5,2.8-3.7.7-.9,1.3-1.7,2-2.6,1.1-1.4,2.2-2.9,3.3-4.4.6-.8,1.2-1.5,1.8-2.4,1.4-1.9,2.9-3.8,4.3-5.8,1.1-1.5,2.2-3,3.4-4.5,1.2-1.6,2.4-3.2,3.6-4.8.9-1.1,1.8-2.3,2.6-3.5,1.3-1.7,2.5-3.3,3.8-5.1.8-1.1,1.7-2.2,2.5-3.3,1.4-1.9,2.9-3.8,4.3-5.8.9-1.2,1.8-2.4,2.7-3.6,1.4-1.9,2.9-3.8,4.3-5.7,1-1.3,2-2.7,3.1-4.1,1.5-2,3-4,4.5-6,1.1-1.4,2.2-2.9,3.3-4.4,1.4-1.9,2.9-3.9,4.4-5.8,1.3-1.7,2.6-3.4,3.9-5.1,1.6-2.1,3.2-4.2,4.8-6.3,1.1-1.5,2.2-2.9,3.3-4.4,2.1-2.7,4.2-5.6,6.3-8.4.8-1.1,1.7-2.2,2.5-3.3,2.7-3.6,5.5-7.2,8.3-10.9.3-.5.7-.9,1-1.4,3.2-4.2,6.4-8.5,9.7-12.9,1.1-1.4,2.1-2.8,3.2-4.2,2.2-2.9,4.4-5.9,6.7-8.9,1.4-1.8,2.8-3.7,4.2-5.6,2.1-2.8,4.3-5.6,6.5-8.5,1.3-1.7,2.7-3.5,4-5.3,2.3-3,4.6-6,6.9-9.1,1.5-1.9,3-3.9,4.5-5.9,2.4-3.1,4.7-6.3,7.2-9.4,1.2-1.6,2.5-3.3,3.7-4.9,2.8-3.7,5.6-7.4,8.5-11.2,1.1-1.5,2.3-3,3.4-4.5,2.7-3.6,5.5-7.3,8.3-11,1.5-2,3.1-4.1,4.6-6.1,2.6-3.4,5.2-6.9,7.8-10.3,1.5-1.9,2.9-3.8,4.4-5.8,3.6-4.8,7.3-9.7,11.1-14.6.6-.8,1.2-1.6,1.9-2.5,4.5-5.9,9.1-11.9,13.7-18.1,41.9-56.8,87.7-117.7,137.6-182.7l-108.2-62.9c-49.9,65-95.7,125.9-137.6,182.7-4.6,6.1-9.2,12.1-13.7,18.1-.6.8-1.2,1.6-1.9,2.5-3.7,4.9-7.4,9.8-11.1,14.6-1.5,2-2.9,3.9-4.4,5.8-2.6,3.5-5.3,6.9-7.8,10.3-1.6,2.1-3.1,4.1-4.6,6.1-2.8,3.7-5.6,7.4-8.3,11-1.2,1.5-2.3,3-3.4,4.5-2.9,3.8-5.7,7.5-8.5,11.2-1.2,1.6-2.5,3.3-3.7,4.9-2.4,3.2-4.8,6.3-7.2,9.4-1.5,2-3,4-4.5,5.9-2.3,3.1-4.6,6.1-6.9,9.1-1.3,1.8-2.7,3.5-4,5.3-2.2,2.9-4.3,5.7-6.5,8.5-1.4,1.9-2.8,3.7-4.2,5.6-2.3,3-4.5,5.9-6.7,8.9-1.1,1.4-2.2,2.9-3.2,4.2-3.3,4.4-6.6,8.7-9.7,12.9-.3.5-.7.9-1,1.4-2.8,3.7-5.6,7.4-8.3,10.9-.9,1.1-1.7,2.2-2.5,3.3-2.1,2.8-4.3,5.6-6.3,8.4-1.1,1.5-2.2,3-3.3,4.4-1.6,2.1-3.2,4.3-4.8,6.3-1.3,1.7-2.6,3.4-3.9,5.1-1.5,2-3,3.9-4.4,5.8-1.1,1.5-2.2,2.9-3.3,4.4-1.5,2-3,4-4.5,6-1,1.4-2.1,2.7-3.1,4.1-1.5,2-2.9,3.9-4.3,5.7-.9,1.2-1.8,2.4-2.7,3.6-1.5,2-2.9,3.9-4.3,5.8-.8,1.1-1.7,2.2-2.5,3.3-1.3,1.7-2.6,3.4-3.8,5.1-.9,1.2-1.8,2.4-2.6,3.5-1.2,1.7-2.4,3.2-3.6,4.8-1.1,1.5-2.3,3-3.4,4.5-1.5,2-2.9,3.9-4.3,5.8-.6.8-1.2,1.6-1.8,2.4-1.1,1.5-2.2,3-3.3,4.4-.7.9-1.3,1.8-2,2.6-.9,1.3-1.9,2.5-2.8,3.7-.7.9-1.3,1.8-2,2.6-.8,1.1-1.6,2.1-2.3,3.1-.6.9-1.2,1.7-1.9,2.5-.7,1-1.5,2-2.2,2.9-.5.7-1.1,1.5-1.6,2.2-.7.9-1.3,1.8-2,2.6-.5.7-1,1.3-1.5,2-.6.8-1.2,1.6-1.8,2.4-.4.6-.8,1.1-1.2,1.7-.6.8-1.1,1.5-1.6,2.2-.3.4-.7.9-1,1.3-.6.8-1.1,1.5-1.5,2.2-.2.3-.5.6-.6.9-.6.9-1.2,1.7-1.8,2.5,0,0,0,0,0,0,0,.1-.1.2-.2.3-.4.6-.8,1.2-1.2,1.7-.1.2-.2.4-.4.5-.2.3-.4.6-.5.8,0,0,0,.1-.1.2,0,0-.1.2-.2.3,0,.1-.2.2-.2.3-.1.2-.2.4-.3.5l108.2,62.9c.1-.2.3-.5.5-.8,0,0,.1-.2.2-.3.2-.3.4-.6.7-1Z"/>
        <path class="cls-8" d="M703.4,74c1.3-.4,1.9,0,1.9,1.3l-71.5,137.2c-6.9,11.2-297.9,475.7-301.2,478.6l372-213.3c1.3-.7,1.9-.5,1.9.9l.3,120.8c0,1.6-.6,2.8-1.9,3.6L139.4,929.6c-1.3.7-1.9.3-1.9-1.3l-.3-121.8c3.9-7.2,268-380.5,308.8-457.1l-307.7,176.8c-1.3.7-1.9.3-1.9-1.4l-.3-120.8c.2-1.8.9-3,1.9-3.6L703.4,74Z"/>
      </g>
      <g class="cls-53">
        <g class="cls-53">
          <g class="cls-39">
            <g class="cls-53">
              <path class="cls-20" d="M492.7,71.9l108.2-62.9s0,0,.1,0l-108.2,62.9s0,0-.1,0"/>
              <path class="cls-37" d="M492.8,71.8l108.2-62.9s0,0,.1,0l-108.2,62.9s0,0-.1,0"/>
              <path class="cls-17" d="M493,71.8l108.2-62.9s0,0,0,0l-108.2,62.9s0,0,0,0"/>
              <path class="cls-32" d="M493,71.8l108.2-62.9s0,0,0,0l-108.2,62.9s0,0,0,0"/>
              <path class="cls-33" d="M493.1,71.8l108.2-62.9s0,0,0,0l-108.2,62.9s0,0,0,0"/>
              <path class="cls-21" d="M493.2,71.8l108.2-62.9s0,0,0,0l-108.2,62.9s0,0,0,0"/>
              <path class="cls-27" d="M493.3,71.8l108.2-62.9s0,0,0,0l-108.2,62.9s0,0,0,0"/>
              <path class="cls-26" d="M493.3,71.8l108.2-62.9s0,0,0,0l-108.2,62.9s0,0,0,0"/>
              <path class="cls-34" d="M493.4,71.8l108.2-62.9s0,0,0,0l-108.2,62.9s0,0,0,0"/>
              <path class="cls-6" d="M493.5,71.9l108.2-62.9s0,0,0,0l-108.2,62.9s0,0,0,0"/>
              <path class="cls-25" d="M493.5,71.9l108.2-62.9s0,0,0,0l-108.2,62.9s0,0,0,0"/>
              <path class="cls-30" d="M493.6,71.9l108.2-62.9s0,0,0,0l-108.2,62.9s0,0,0,0"/>
              <path class="cls-3" d="M493.7,71.9l108.2-62.9s0,0,0,0l-108.2,62.9s0,0,0,0"/>
              <path class="cls-12" d="M493.8,72l108.2-62.9s0,0,0,0l-108.2,62.9s0,0,0,0"/>
              <path class="cls-35" d="M493.9,72l108.2-62.9s0,0,0,0l-108.2,62.9s0,0,0,0"/>
            </g>
          </g>
        </g>
        <g class="cls-53">
          <g class="cls-41">
            <g class="cls-53">
              <path class="cls-25" d="M1059.9,926.4l108.2-62.9s0,0,0,0l-108.2,62.9s0,0,0,0"/>
              <path class="cls-6" d="M1059.9,926.4l108.2-62.9c0,0,0,.1,0,.2l-108.2,62.9c0,0,0-.1,0-.2"/>
              <path class="cls-34" d="M1059.9,926.6l108.2-62.9c0,0,0,.1,0,.2l-108.2,62.9c0,0,0-.1,0-.2"/>
              <path class="cls-26" d="M1059.8,926.8l108.2-62.9c0,0,0,.1,0,.2l-108.2,62.9c0,0,0-.1,0-.2"/>
              <path class="cls-27" d="M1059.8,926.9l108.2-62.9c0,0,0,0,0,.1l-108.2,62.9s0,0,0-.1"/>
              <path class="cls-21" d="M1059.8,927.1l108.2-62.9s0,0,0,.1l-108.2,62.9s0,0,0-.1"/>
              <path class="cls-33" d="M1059.8,927.2l108.2-62.9s0,0,0,.1l-108.2,62.9s0,0,0-.1"/>
              <path class="cls-32" d="M1059.7,927.3l108.2-62.9s0,0,0,.1l-108.2,62.9s0,0,0-.1"/>
              <path class="cls-17" d="M1059.7,927.4l108.2-62.9s0,0,0,.1l-108.2,62.9s0,0,0-.1"/>
              <path class="cls-37" d="M1059.7,927.6l108.2-62.9s0,0,0,.1l-108.2,62.9s0,0,0-.1"/>
              <path class="cls-20" d="M1059.6,927.7l108.2-62.9c0,.1-.2.2-.3.3l-108.2,62.9c.1,0,.2-.1.3-.3"/>
            </g>
          </g>
        </g>
        <polygon class="cls-15" points="1060.2 805.5 1168.4 742.7 1168 863.5 1059.9 926.4 1060.2 805.5"/>
        <g class="cls-53">
          <g class="cls-44">
            <g class="cls-53">
              <path class="cls-35" d="M1058.3,802.4l108.2-62.9s0,0,0,0l-108.2,62.9s0,0,0,0"/>
              <path class="cls-28" d="M1058.3,802.4l108.2-62.9c0,0,.1,0,.2,0l-108.2,62.9c0,0-.1,0-.2,0"/>
              <path class="cls-1" d="M1058.5,802.5l108.2-62.9s0,0,.1,0l-108.2,62.9s0,0-.1,0"/>
              <path class="cls-31" d="M1058.6,802.6l108.2-62.9s0,0,.1,0l-108.2,62.9s0,0-.1,0"/>
              <path class="cls-11" d="M1058.7,802.7l108.2-62.9s0,0,.1,0l-108.2,62.9s0,0-.1,0"/>
              <path class="cls-18" d="M1058.9,802.8l108.2-62.9s0,0,.1,0l-108.2,62.9s0,0-.1,0"/>
              <path class="cls-10" d="M1059,802.9l108.2-62.9s0,0,0,0l-108.2,62.9s0,0,0,0"/>
              <path class="cls-22" d="M1059.1,803l108.2-62.9s0,0,0,0l-108.2,62.9s0,0,0,0"/>
              <path class="cls-23" d="M1059.2,803.1l108.2-62.9s0,0,0,0l-108.2,62.9s0,0,0,0"/>
              <path class="cls-38" d="M1059.3,803.2l108.2-62.9s0,0,0,0l-108.2,62.9s0,0,0,0"/>
              <path class="cls-16" d="M1059.3,803.2l108.2-62.9s0,0,0,0l-108.2,62.9s0,0,0,0"/>
              <path class="cls-24" d="M1059.4,803.3l108.2-62.9s0,0,0,0l-108.2,62.9s0,0,0,0"/>
              <path class="cls-19" d="M1059.4,803.4l108.2-62.9s0,0,0,0l-108.2,62.9s0,0,0,0"/>
              <path class="cls-29" d="M1059.5,803.5l108.2-62.9s0,0,0,0l-108.2,62.9s0,0,0,0"/>
              <path class="cls-9" d="M1059.6,803.5l108.2-62.9s0,0,0,.1l-108.2,62.9s0,0,0-.1"/>
              <path class="cls-5" d="M1059.7,803.7l108.2-62.9s0,0,0,.1l-108.2,62.9s0,0,0-.1"/>
              <path class="cls-9" d="M1059.7,803.8l108.2-62.9s0,0,0,.1l-108.2,62.9s0,0,0-.1"/>
              <path class="cls-29" d="M1059.8,803.9l108.2-62.9s0,0,0,0l-108.2,62.9s0,0,0,0"/>
              <path class="cls-19" d="M1059.9,804l108.2-62.9s0,0,0,0l-108.2,62.9s0,0,0,0"/>
              <path class="cls-24" d="M1059.9,804.1l108.2-62.9s0,0,0,0l-108.2,62.9s0,0,0,0"/>
              <path class="cls-16" d="M1059.9,804.1l108.2-62.9s0,0,0,0l-108.2,62.9s0,0,0,0"/>
              <path class="cls-38" d="M1059.9,804.2l108.2-62.9s0,0,0,0l-108.2,62.9s0,0,0,0"/>
              <path class="cls-23" d="M1060,804.3l108.2-62.9s0,0,0,0l-108.2,62.9s0,0,0,0"/>
              <path class="cls-22" d="M1060,804.3l108.2-62.9s0,0,0,0l-108.2,62.9s0,0,0,0"/>
              <path class="cls-10" d="M1060,804.4l108.2-62.9s0,0,0,0l-108.2,62.9s0,0,0,0"/>
              <path class="cls-18" d="M1060.1,804.5l108.2-62.9s0,0,0,0l-108.2,62.9s0,0,0,0"/>
              <path class="cls-11" d="M1060.1,804.6l108.2-62.9s0,0,0,0l-108.2,62.9s0,0,0,0"/>
              <path class="cls-31" d="M1060.1,804.7l108.2-62.9s0,0,0,0l-108.2,62.9s0,0,0,0"/>
              <path class="cls-1" d="M1060.1,804.7l108.2-62.9s0,0,0,0l-108.2,62.9s0,0,0,0"/>
              <path class="cls-28" d="M1060.1,804.8l108.2-62.9s0,0,0,0l-108.2,62.9s0,0,0,0"/>
              <path class="cls-35" d="M1060.2,804.9l108.2-62.9s0,0,0,.1l-108.2,62.9s0,0,0-.1"/>
              <path class="cls-12" d="M1060.2,805l108.2-62.9s0,0,0,.1l-108.2,62.9s0,0,0-.1"/>
              <path class="cls-3" d="M1060.2,805.2l108.2-62.9s0,0,0,.1l-108.2,62.9s0,0,0-.1"/>
              <path class="cls-30" d="M1060.2,805.3l108.2-62.9s0,0,0,.1l-108.2,62.9s0,0,0-.1"/>
              <path class="cls-25" d="M1060.2,805.4l108.2-62.9s0,0,0,.1l-108.2,62.9s0,0,0-.1"/>
            </g>
          </g>
        </g>
        <path class="cls-13" d="M750.8,430.8c2.4-.5,4.9-.9,7.3-1.4,3-.5,6-1.1,9-1.6,2.5-.5,5.1-.9,7.6-1.4,3.1-.5,6.2-1.1,9.3-1.6,2.5-.4,5-.9,7.6-1.3,3.2-.5,6.4-1.1,9.7-1.6,2.6-.4,5.1-.9,7.7-1.3,3.3-.5,6.6-1.1,10-1.6,2.6-.4,5.1-.8,7.7-1.2,3.9-.6,7.8-1.2,11.7-1.8,2.1-.3,4.2-.7,6.4-1,6.1-.9,12.2-1.8,18.4-2.7l108.2-62.9c-6.2.9-12.4,1.8-18.4,2.7-2.2.3-4.3.7-6.4,1-3.9.6-7.8,1.2-11.7,1.8-2.6.4-5.1.8-7.7,1.2-3.3.5-6.7,1.1-10,1.6-2.6.4-5.2.9-7.7,1.3-3.2.5-6.5,1.1-9.7,1.6-2.6.4-5.1.9-7.6,1.3-3.1.5-6.3,1.1-9.3,1.6-2.6.5-5.1.9-7.6,1.4-3,.5-6,1.1-9,1.6-2.5.5-4.9.9-7.3,1.4-3,.6-6,1.1-8.9,1.7-2.5.5-4.9.9-7.3,1.4-2.5.5-5.1,1-7.6,1.5-.7.1-1.3.3-2,.4-4.2.7-8.3,1.3-12.4,2-1.5.2-3,.5-4.6.7-2.7.4-5.4.9-8,1.3-1.3.2-2.7.4-4,.6-3.6.6-7.1,1.1-10.6,1.7-.8.1-1.5.2-2.3.4-3.4.5-6.8,1.1-10.1,1.6-1.3.2-2.5.4-3.8.6-2.7.4-5.4.9-8,1.3-1.1.2-2.3.4-3.4.5-7.2,1.2-14.2,2.3-20.9,3.4-1.1.2-2.1.3-3.2.5-2.4.4-4.7.8-7,1.1-1,.2-2.1.3-3.1.5-2.8.4-5.5.9-8.1,1.3-.8.1-1.6.3-2.4.4-2.7.4-5.3.9-7.9,1.3-1,.2-1.9.3-2.8.5-2.2.4-4.4.7-6.6,1.1-.8.1-1.5.2-2.2.4-5.7.9-11.2,1.9-16.4,2.7-.8.1-1.5.3-2.3.4-1.8.3-3.6.6-5.4.9-.8.1-1.7.3-2.5.4-4.8.8-9.4,1.6-13.7,2.3-.8.1-1.5.3-2.3.4-1.6.3-3.1.5-4.6.8-.6.1-1.2.2-1.7.3-2.1.4-4.1.7-6,1,0,0,0,0,0,0-2,.3-3.9.7-5.7,1-.5,0-.9.2-1.4.2-1.4.2-2.7.5-4.1.7-.5,0-.9.2-1.4.2-1.7.3-3.3.6-4.8.9,0,0,0,0,0,0-1.5.3-3,.6-4.4.8-.4,0-.8.2-1.3.2-1,.2-2,.4-3,.6-.4,0-.8.1-1.2.2-1.1.2-2.2.4-3.3.6-.1,0-.3,0-.4,0,0,0,0,0,0,0-1.1.2-2.2.4-3.3.7-.3,0-.7.1-1,.2-.7.1-1.4.3-2,.4-.3,0-.7.1-1,.2-.6.1-1.2.3-1.7.4-.3,0-.5.1-.8.2-.6.1-1.2.3-1.8.4-.1,0-.3,0-.4,0-.6.2-1.2.3-1.7.4-.1,0-.3,0-.4.1-.4,0-.7.2-1,.3-.1,0-.3,0-.4.1-.1,0-.3,0-.4.1-.1,0-.2,0-.3.1,0,0-.2,0-.2,0-.2,0-.4.2-.5.3l-108.2,62.9c.1,0,.3-.2.5-.3,0,0,.1,0,.2,0,.2,0,.4-.1.7-.2.1,0,.2,0,.4-.1.3,0,.6-.2,1-.3.1,0,.2,0,.4,0,.5-.1,1.1-.3,1.7-.4.1,0,.2,0,.4,0,.5-.1,1.1-.3,1.8-.4.3,0,.5-.1.8-.2.5-.1,1.1-.2,1.7-.4.3,0,.6-.1,1-.2.7-.1,1.4-.3,2.1-.4.3,0,.6-.1.9-.2,1.1-.2,2.2-.4,3.4-.7,0,0,0,0,0,0,1.1-.2,2.3-.5,3.6-.7.4,0,.8-.1,1.1-.2,1-.2,2.1-.4,3.1-.6.3,0,.7-.1,1-.2,1.5-.3,3-.5,4.5-.8,0,0,0,0,0,0,1.5-.3,3.2-.6,4.8-.9.4,0,.9-.2,1.4-.2,1.3-.2,2.7-.5,4.1-.7.5,0,.9-.2,1.4-.2,1.8-.3,3.7-.7,5.7-1,0,0,0,0,0,0,1.9-.3,4-.7,6-1,.6,0,1.2-.2,1.7-.3,1.5-.3,3-.5,4.6-.8.7-.1,1.5-.3,2.3-.4,4.4-.8,9.1-1.6,14-2.4.6-.1,1.2-.2,1.8-.3,1.9-.3,3.9-.7,5.9-1,.7-.1,1.5-.2,2.2-.4,5.2-.9,10.7-1.8,16.4-2.7.7-.1,1.5-.2,2.2-.4,2.2-.4,4.4-.7,6.6-1.1.9-.2,1.9-.3,2.8-.5,6-1,12.2-2,18.6-3,1-.2,2-.3,3.1-.5,2.3-.4,4.6-.7,7-1.1,1-.2,2.1-.3,3.2-.5,6.7-1.1,13.7-2.2,20.9-3.4,1.1-.2,2.2-.4,3.4-.5,2.6-.4,5.3-.9,8-1.3,1.3-.2,2.5-.4,3.8-.6,3.3-.5,6.7-1.1,10.1-1.6.8-.1,1.5-.2,2.3-.4,3.5-.6,7-1.1,10.6-1.7,1.3-.2,2.7-.4,4-.6,2.7-.4,5.3-.8,8-1.3,1.5-.2,3-.5,4.6-.7,4.1-.6,8.2-1.3,12.4-2,3.1-.6,6.3-1.2,9.5-1.8,2.4-.5,4.8-.9,7.3-1.4,2.9-.6,5.9-1.1,8.9-1.7Z"/>
        <polygon class="cls-15" points="1061.3 402.1 1169.5 339.3 1169.2 460.1 1061 522.9 1061.3 402.1"/>
        <polygon class="cls-13" points="493.9 72.1 602.1 9.2 1167.6 335.7 1059.4 398.5 493.9 72.1"/>
        <g class="cls-53">
          <g class="cls-43">
            <g class="cls-53">
              <path class="cls-18" d="M1059.4,398.5l108.2-62.9s0,0,0,0l-108.2,62.9s0,0,0,0"/>
              <path class="cls-10" d="M1059.5,398.6l108.2-62.9c0,0,.1.1.2.2l-108.2,62.9c0,0-.1-.1-.2-.2"/>
              <path class="cls-22" d="M1059.7,398.8l108.2-62.9c0,0,.1,0,.2.1l-108.2,62.9c0,0-.1,0-.2-.1"/>
              <path class="cls-23" d="M1059.8,398.9l108.2-62.9s0,0,.1.1l-108.2,62.9s0,0-.1-.1"/>
              <path class="cls-38" d="M1060,399.1l108.2-62.9s0,0,.1.1l-108.2,62.9s0,0-.1-.1"/>
              <path class="cls-16" d="M1060.1,399.2l108.2-62.9s0,0,.1.1l-108.2,62.9s0,0-.1-.1"/>
              <path class="cls-24" d="M1060.2,399.3l108.2-62.9s0,0,0,.1l-108.2,62.9s0,0,0-.1"/>
              <path class="cls-19" d="M1060.3,399.4l108.2-62.9s0,0,0,.1l-108.2,62.9s0,0,0-.1"/>
              <path class="cls-29" d="M1060.4,399.5l108.2-62.9s0,0,0,.1l-108.2,62.9s0,0,0-.1"/>
              <path class="cls-9" d="M1060.5,399.7l108.2-62.9c0,0,0,.1.1.2l-108.2,62.9c0,0,0-.1-.1-.2"/>
              <path class="cls-5" d="M1060.6,399.8l108.2-62.9c0,0,.1.2.2.2l-108.2,62.9c0,0,0-.2-.2-.2"/>
              <path class="cls-9" d="M1060.8,400.1l108.2-62.9c0,0,0,.1,0,.2l-108.2,62.9c0,0,0-.1,0-.2"/>
              <path class="cls-29" d="M1060.9,400.2l108.2-62.9s0,0,0,0l-108.2,62.9s0,0,0,0"/>
              <path class="cls-19" d="M1060.9,400.3l108.2-62.9s0,0,0,0l-108.2,62.9s0,0,0,0"/>
              <path class="cls-24" d="M1061,400.4l108.2-62.9s0,0,0,0l-108.2,62.9s0,0,0,0"/>
              <path class="cls-16" d="M1061,400.5l108.2-62.9s0,0,0,0l-108.2,62.9s0,0,0,0"/>
              <path class="cls-38" d="M1061,400.6l108.2-62.9s0,0,0,0l-108.2,62.9s0,0,0,0"/>
              <path class="cls-23" d="M1061.1,400.7l108.2-62.9s0,0,0,0l-108.2,62.9s0,0,0,0"/>
              <path class="cls-22" d="M1061.1,400.8l108.2-62.9s0,0,0,0l-108.2,62.9s0,0,0,0"/>
              <path class="cls-10" d="M1061.1,400.9l108.2-62.9s0,0,0,0l-108.2,62.9s0,0,0,0"/>
              <path class="cls-18" d="M1061.2,401l108.2-62.9s0,0,0,.1l-108.2,62.9s0,0,0-.1"/>
              <path class="cls-11" d="M1061.2,401.1l108.2-62.9s0,0,0,.1l-108.2,62.9s0,0,0-.1"/>
              <path class="cls-31" d="M1061.2,401.2l108.2-62.9s0,0,0,.1l-108.2,62.9s0,0,0-.1"/>
              <path class="cls-1" d="M1061.3,401.3l108.2-62.9s0,0,0,.1l-108.2,62.9s0,0,0-.1"/>
              <path class="cls-28" d="M1061.3,401.4l108.2-62.9s0,0,0,.1l-108.2,62.9s0,0,0-.1"/>
              <path class="cls-35" d="M1061.3,401.5l108.2-62.9s0,0,0,.1l-108.2,62.9s0,0,0-.1"/>
              <path class="cls-12" d="M1061.3,401.6l108.2-62.9s0,0,0,.1l-108.2,62.9s0,0,0-.1"/>
              <path class="cls-3" d="M1061.3,401.7l108.2-62.9s0,0,0,.1l-108.2,62.9s0,0,0-.1"/>
              <path class="cls-30" d="M1061.3,401.8l108.2-62.9s0,0,0,.1l-108.2,62.9s0,0,0-.1"/>
              <path class="cls-25" d="M1061.3,402l108.2-62.9s0,0,0,.1l-108.2,62.9s0,0,0-.1"/>
            </g>
          </g>
        </g>
        <path class="cls-14" d="M600.5,133.6l458.9,264.9c1.3,1.1,1.9,2.3,1.9,3.6l-.3,120.8c-7,3.2-70.8,14.1-191.6,32.6-118.7,21.4-179.7,31.6-183.1,30.6l372,216.2c1.3.7,1.9,1.8,1.9,3.1l-.3,120.8c0,1.6-.6,2.1-1.9,1.3l-565.5-326.5c-1.3-.7-1.9-1.9-1.9-3.6l.3-121.8c3.9-2.7,81.9-16.1,234.2-40.2,42-8.3,88.1-16.1,138.2-23.5"/>
      </g>
      <g class="cls-53">
        <g class="cls-53">
          <g class="cls-42">
            <g class="cls-53">
              <path class="cls-20" d="M33.9,338.1l108.2-62.9s0,0,.1,0l-108.2,62.9s0,0-.1,0"/>
              <path class="cls-37" d="M34,338.1l108.2-62.9s0,0,.1,0l-108.2,62.9s0,0-.1,0"/>
              <path class="cls-17" d="M34.2,338l108.2-62.9s0,0,0,0l-108.2,62.9s0,0,0,0"/>
              <path class="cls-32" d="M34.2,338l108.2-62.9s0,0,0,0l-108.2,62.9s0,0,0,0"/>
              <path class="cls-33" d="M34.3,338l108.2-62.9s0,0,0,0l-108.2,62.9s0,0,0,0"/>
              <path class="cls-21" d="M34.4,338l108.2-62.9s0,0,0,0l-108.2,62.9s0,0,0,0"/>
              <path class="cls-27" d="M34.5,338l108.2-62.9s0,0,0,0l-108.2,62.9s0,0,0,0"/>
              <path class="cls-26" d="M34.5,338.1l108.2-62.9s0,0,0,0l-108.2,62.9s0,0,0,0"/>
              <path class="cls-34" d="M34.6,338.1l108.2-62.9s0,0,0,0l-108.2,62.9s0,0,0,0"/>
              <path class="cls-6" d="M34.7,338.1l108.2-62.9s0,0,0,0l-108.2,62.9s0,0,0,0"/>
              <path class="cls-25" d="M34.7,338.1l108.2-62.9s0,0,0,0l-108.2,62.9s0,0,0,0"/>
              <path class="cls-30" d="M34.8,338.1l108.2-62.9s0,0,0,0l-108.2,62.9s0,0,0,0"/>
              <path class="cls-3" d="M34.9,338.2l108.2-62.9s0,0,0,0l-108.2,62.9s0,0,0,0"/>
              <path class="cls-12" d="M35,338.2l108.2-62.9s0,0,0,0l-108.2,62.9s0,0,0,0"/>
              <path class="cls-35" d="M35,338.2l108.2-62.9s0,0,0,0l-108.2,62.9s0,0,0,0"/>
            </g>
          </g>
        </g>
        <g class="cls-53">
          <g class="cls-48">
            <g class="cls-53">
              <path class="cls-25" d="M601.1,1192.6l108.2-62.9s0,0,0,0l-108.2,62.9s0,0,0,0"/>
              <path class="cls-6" d="M601.1,1192.6l108.2-62.9c0,0,0,.1,0,.2l-108.2,62.9c0,0,0-.1,0-.2"/>
              <path class="cls-34" d="M601.1,1192.8l108.2-62.9c0,0,0,.1,0,.2l-108.2,62.9c0,0,0-.1,0-.2"/>
              <path class="cls-26" d="M601,1193l108.2-62.9c0,0,0,.1,0,.2l-108.2,62.9c0,0,0-.1,0-.2"/>
              <path class="cls-27" d="M601,1193.1l108.2-62.9c0,0,0,.1,0,.1l-108.2,62.9s0,0,0-.1"/>
              <path class="cls-21" d="M601,1193.3l108.2-62.9s0,0,0,.1l-108.2,62.9s0,0,0-.1"/>
              <path class="cls-33" d="M601,1193.4l108.2-62.9s0,0,0,.1l-108.2,62.9s0,0,0-.1"/>
              <path class="cls-32" d="M600.9,1193.6l108.2-62.9s0,0,0,.1l-108.2,62.9s0,0,0-.1"/>
              <path class="cls-17" d="M600.9,1193.7l108.2-62.9s0,0,0,.1l-108.2,62.9s0,0,0-.1"/>
              <path class="cls-37" d="M600.9,1193.8l108.2-62.9s0,0,0,.1l-108.2,62.9s0,0,0-.1"/>
              <path class="cls-20" d="M600.8,1193.9l108.2-62.9c0,.1-.2.2-.3.3l-108.2,62.9c.1,0,.2-.1.3-.3"/>
            </g>
          </g>
        </g>
        <polygon class="cls-15" points="601.4 1071.8 709.6 1008.9 709.2 1129.7 601.1 1192.6 601.4 1071.8"/>
        <g class="cls-53">
          <g class="cls-47">
            <g class="cls-53">
              <path class="cls-35" d="M599.5,1068.7l108.2-62.9s0,0,0,0l-108.2,62.9s0,0,0,0"/>
              <path class="cls-28" d="M599.5,1068.7l108.2-62.9c0,0,.1,0,.2,0l-108.2,62.9c0,0-.1,0-.2,0"/>
              <path class="cls-1" d="M599.7,1068.8l108.2-62.9s0,0,.1,0l-108.2,62.9s0,0-.1,0"/>
              <path class="cls-31" d="M599.8,1068.9l108.2-62.9s0,0,.1,0l-108.2,62.9s0,0-.1,0"/>
              <path class="cls-11" d="M599.9,1069l108.2-62.9s0,0,.1,0l-108.2,62.9s0,0-.1,0"/>
              <path class="cls-18" d="M600.1,1069.1l108.2-62.9s0,0,.1,0l-108.2,62.9s0,0-.1,0"/>
              <path class="cls-10" d="M600.2,1069.1l108.2-62.9s0,0,0,0l-108.2,62.9s0,0,0,0"/>
              <path class="cls-22" d="M600.3,1069.2l108.2-62.9s0,0,0,0l-108.2,62.9s0,0,0,0"/>
              <path class="cls-23" d="M600.4,1069.3l108.2-62.9s0,0,0,0l-108.2,62.9s0,0,0,0"/>
              <path class="cls-38" d="M600.4,1069.4l108.2-62.9s0,0,0,0l-108.2,62.9s0,0,0,0"/>
              <path class="cls-16" d="M600.5,1069.5l108.2-62.9s0,0,0,0l-108.2,62.9s0,0,0,0"/>
              <path class="cls-24" d="M600.6,1069.5l108.2-62.9s0,0,0,0l-108.2,62.9s0,0,0,0"/>
              <path class="cls-19" d="M600.6,1069.6l108.2-62.9s0,0,0,0l-108.2,62.9s0,0,0,0"/>
              <path class="cls-29" d="M600.7,1069.7l108.2-62.9s0,0,0,0l-108.2,62.9s0,0,0,0"/>
              <path class="cls-9" d="M600.8,1069.8l108.2-62.9s0,0,0,.1l-108.2,62.9s0,0,0-.1"/>
              <path class="cls-5" d="M600.9,1069.9l108.2-62.9s0,0,0,.1l-108.2,62.9s0,0,0-.1"/>
              <path class="cls-9" d="M600.9,1070l108.2-62.9s0,0,0,.1l-108.2,62.9s0,0,0-.1"/>
              <path class="cls-29" d="M601,1070.2l108.2-62.9s0,0,0,0l-108.2,62.9s0,0,0,0"/>
              <path class="cls-19" d="M601.1,1070.3l108.2-62.9s0,0,0,0l-108.2,62.9s0,0,0,0"/>
              <path class="cls-24" d="M601.1,1070.3l108.2-62.9s0,0,0,0l-108.2,62.9s0,0,0,0"/>
              <path class="cls-16" d="M601.1,1070.4l108.2-62.9s0,0,0,0l-108.2,62.9s0,0,0,0"/>
              <path class="cls-38" d="M601.2,1070.5l108.2-62.9s0,0,0,0l-108.2,62.9s0,0,0,0"/>
              <path class="cls-23" d="M601.2,1070.5l108.2-62.9s0,0,0,0l-108.2,62.9s0,0,0,0"/>
              <path class="cls-22" d="M601.2,1070.6l108.2-62.9s0,0,0,0l-108.2,62.9s0,0,0,0"/>
              <path class="cls-10" d="M601.2,1070.7l108.2-62.9s0,0,0,0l-108.2,62.9s0,0,0,0"/>
              <path class="cls-18" d="M601.3,1070.7l108.2-62.9s0,0,0,0l-108.2,62.9s0,0,0,0"/>
              <path class="cls-11" d="M601.3,1070.8l108.2-62.9s0,0,0,0l-108.2,62.9s0,0,0,0"/>
              <path class="cls-31" d="M601.3,1070.9l108.2-62.9s0,0,0,0l-108.2,62.9s0,0,0,0"/>
              <path class="cls-1" d="M601.3,1071l108.2-62.9s0,0,0,0l-108.2,62.9s0,0,0,0"/>
              <path class="cls-28" d="M601.3,1071.1l108.2-62.9s0,0,0,0l-108.2,62.9s0,0,0,0"/>
              <path class="cls-35" d="M601.4,1071.2l108.2-62.9s0,0,0,.1l-108.2,62.9s0,0,0-.1"/>
              <path class="cls-12" d="M601.4,1071.3l108.2-62.9s0,0,0,.1l-108.2,62.9s0,0,0-.1"/>
              <path class="cls-3" d="M601.4,1071.4l108.2-62.9s0,0,0,.1l-108.2,62.9s0,0,0-.1"/>
              <path class="cls-30" d="M601.4,1071.5l108.2-62.9s0,0,0,.1l-108.2,62.9s0,0,0-.1"/>
              <path class="cls-25" d="M601.4,1071.6l108.2-62.9s0,0,0,.1l-108.2,62.9s0,0,0-.1"/>
            </g>
          </g>
        </g>
        <polygon class="cls-15" points="602.5 668.3 710.7 605.5 710.4 726.3 602.2 789.2 602.5 668.3"/>
        <polygon class="cls-13" points="35.1 338.3 143.3 275.4 708.8 601.9 600.6 664.8 35.1 338.3"/>
        <g class="cls-53">
          <g class="cls-45">
            <g class="cls-53">
              <path class="cls-18" d="M600.6,664.8l108.2-62.9s0,0,0,0l-108.2,62.9s0,0,0,0"/>
              <path class="cls-10" d="M600.7,664.8l108.2-62.9c0,0,.1.1.2.2l-108.2,62.9c0,0-.1-.1-.2-.2"/>
              <path class="cls-22" d="M600.9,665l108.2-62.9c0,0,.1,0,.2.1l-108.2,62.9c0,0-.1,0-.2-.1"/>
              <path class="cls-23" d="M601,665.1l108.2-62.9s0,0,.1.1l-108.2,62.9s0,0-.1-.1"/>
              <path class="cls-38" d="M601.2,665.3l108.2-62.9s0,0,.1.1l-108.2,62.9s0,0-.1-.1"/>
              <path class="cls-16" d="M601.3,665.4l108.2-62.9s0,0,.1.1l-108.2,62.9s0,0-.1-.1"/>
              <path class="cls-24" d="M601.4,665.5l108.2-62.9s0,0,0,.1l-108.2,62.9s0,0,0-.1"/>
              <path class="cls-19" d="M601.5,665.6l108.2-62.9s0,0,0,.1l-108.2,62.9s0,0,0-.1"/>
              <path class="cls-29" d="M601.6,665.8l108.2-62.9s0,0,0,.1l-108.2,62.9s0,0,0-.1"/>
              <path class="cls-9" d="M601.7,665.9l108.2-62.9c0,0,0,.1.1.2l-108.2,62.9c0,0,0-.1-.1-.2"/>
              <path class="cls-5" d="M601.8,666.1l108.2-62.9c0,0,.1.2.2.2l-108.2,62.9c0,0-.1-.2-.2-.2"/>
              <path class="cls-9" d="M602,666.3l108.2-62.9c0,0,0,.1,0,.2l-108.2,62.9c0,0,0-.1,0-.2"/>
              <path class="cls-29" d="M602.1,666.5l108.2-62.9s0,0,0,.1l-108.2,62.9s0,0,0-.1"/>
              <path class="cls-19" d="M602.1,666.6l108.2-62.9s0,0,0,0l-108.2,62.9s0,0,0,0"/>
              <path class="cls-24" d="M602.2,666.7l108.2-62.9s0,0,0,0l-108.2,62.9s0,0,0,0"/>
              <path class="cls-16" d="M602.2,666.8l108.2-62.9s0,0,0,0l-108.2,62.9s0,0,0,0"/>
              <path class="cls-38" d="M602.2,666.9l108.2-62.9s0,0,0,0l-108.2,62.9s0,0,0,0"/>
              <path class="cls-23" d="M602.3,666.9l108.2-62.9s0,0,0,0l-108.2,62.9s0,0,0,0"/>
              <path class="cls-22" d="M602.3,667l108.2-62.9s0,0,0,0l-108.2,62.9s0,0,0,0"/>
              <path class="cls-10" d="M602.3,667.1l108.2-62.9s0,0,0,0l-108.2,62.9s0,0,0,0"/>
              <path class="cls-18" d="M602.4,667.2l108.2-62.9s0,0,0,.1l-108.2,62.9s0,0,0-.1"/>
              <path class="cls-11" d="M602.4,667.3l108.2-62.9s0,0,0,.1l-108.2,62.9s0,0,0-.1"/>
              <path class="cls-31" d="M602.4,667.4l108.2-62.9s0,0,0,.1l-108.2,62.9s0,0,0-.1"/>
              <path class="cls-1" d="M602.5,667.5l108.2-62.9s0,0,0,.1l-108.2,62.9s0,0,0-.1"/>
              <path class="cls-28" d="M602.5,667.6l108.2-62.9s0,0,0,.1l-108.2,62.9s0,0,0-.1"/>
              <path class="cls-35" d="M602.5,667.8l108.2-62.9s0,0,0,.1l-108.2,62.9s0,0,0-.1"/>
              <path class="cls-12" d="M602.5,667.9l108.2-62.9s0,0,0,.1l-108.2,62.9s0,0,0-.1"/>
              <path class="cls-3" d="M602.5,668l108.2-62.9s0,0,0,.1l-108.2,62.9s0,0,0-.1"/>
              <path class="cls-30" d="M602.5,668.1l108.2-62.9s0,0,0,.1l-108.2,62.9s0,0,0-.1"/>
              <path class="cls-25" d="M602.5,668.2l108.2-62.9s0,0,0,.1l-108.2,62.9s0,0,0-.1"/>
            </g>
          </g>
        </g>
        <path class="cls-2" d="M600.6,664.8c1.3,1,1.9,2.3,1.9,3.6l-.3,119.6c-7,3.2-78.2,14.1-199,32.6-118.7,21.4-179.7,31.6-183.1,30.6l379.3,217.5c1.3.7,1.9,1.8,1.9,3.1l-.3,120.8c0,1.7-.7,2.1-1.9,1.4L33.6,867.4c-1.3-.7-1.9-1.9-1.9-3.6l.3-121.8c3.9-2.7,81.9-16.1,234.2-40.1,42.1-8.3,88.1-16.1,138.2-23.5L34.8,464c-1.3-.7-1.9-1.9-1.9-3.6l.3-120.8c.3-1.5.9-1.9,1.9-1.3l565.5,326.5Z"/>
        <path class="cls-13" d="M291.5,697.1c2.5-.5,4.9-.9,7.4-1.4,3-.6,6.2-1.1,9.2-1.7,2.5-.4,4.9-.9,7.4-1.3,3.3-.6,6.6-1.2,10-1.7,2.3-.4,4.7-.8,7-1.2,3.3-.6,6.7-1.1,10-1.7,2.5-.4,4.9-.8,7.4-1.2,3.5-.6,7-1.1,10.5-1.7,2.4-.4,4.8-.8,7.2-1.2,3.9-.6,7.8-1.2,11.8-1.8,2.1-.3,4.2-.7,6.4-1,6.1-.9,12.3-1.8,18.5-2.8l108.2-62.9c-6.2.9-12.4,1.8-18.5,2.8-2.2.3-4.3.7-6.4,1-3.9.6-7.9,1.2-11.8,1.8-2.4.4-4.8.8-7.2,1.2-3.5.6-7.1,1.1-10.5,1.7-2.5.4-5,.8-7.4,1.2-3.3.6-6.7,1.1-10,1.7-2.4.4-4.7.8-7,1.2-3.3.6-6.7,1.1-10,1.7-2.5.4-4.9.9-7.4,1.3-3.1.6-6.2,1.1-9.2,1.7-2.5.5-4.9.9-7.4,1.4-3,.6-6,1.1-8.9,1.7-2.5.5-4.9.9-7.4,1.4-2.7.5-5.4,1-8,1.5-.4,0-.7.1-1.1.2-4.4.7-8.7,1.4-13,2.1-1.1.2-2.1.3-3.1.5-3,.5-5.9.9-8.8,1.4-1.4.2-2.9.5-4.3.7-7.9,1.3-15.6,2.5-23.1,3.7-1.3.2-2.6.4-3.9.6-2.5.4-4.9.8-7.4,1.2-1.3.2-2.6.4-3.9.6-3.4.5-6.8,1.1-10.1,1.6-.1,0-.3,0-.4,0-3.6.6-7.2,1.2-10.7,1.7-.7.1-1.3.2-2,.3-2.9.5-5.7.9-8.5,1.4-.7.1-1.5.2-2.2.4-3.1.5-6.1,1-9.1,1.5-.2,0-.4,0-.6.1-3.2.5-6.3,1-9.4,1.5-.6.1-1.2.2-1.8.3-2.4.4-4.8.8-7.2,1.2-.7.1-1.5.2-2.2.4-2.5.4-4.9.8-7.2,1.2-.5,0-.9.2-1.4.2-2.6.4-5.2.9-7.7,1.3-.8.1-1.6.3-2.3.4-1.9.3-3.9.6-5.7,1-.7.1-1.3.2-2,.3-2.3.4-4.6.8-6.9,1.2-.1,0-.2,0-.3,0-2.4.4-4.6.8-6.9,1.2-.6.1-1.2.2-1.8.3-1.7.3-3.3.6-4.9.8-.6,0-1.1.2-1.7.3-1.8.3-3.6.6-5.4.9-.2,0-.5,0-.7.1-2,.3-3.9.7-5.7,1-.4,0-.8.1-1.2.2-1.4.3-2.8.5-4.2.7-.5,0-1,.2-1.4.3-1.5.3-2.9.5-4.2.8-.2,0-.4,0-.6.1-1.6.3-3,.6-4.5.8-.3,0-.7.1-1,.2-1.1.2-2.2.4-3.2.6-.3,0-.7.1-1,.2-1.1.2-2.1.4-3.1.6-.2,0-.4,0-.6.1,0,0-.1,0-.2,0-1.1.2-2.1.4-3.1.6-.3,0-.5.1-.8.2-.8.2-1.5.3-2.2.5-.3,0-.6.1-.9.2-.6.1-1.2.3-1.8.4-.3,0-.5.1-.8.2-.6.1-1.1.3-1.7.4-.2,0-.3,0-.5.1-.6.2-1.2.3-1.7.4-.1,0-.2,0-.3,0-.4.1-.7.2-1,.3-.1,0-.2,0-.4.1-.1,0-.3,0-.4.1-.1,0-.2,0-.3.1,0,0-.2,0-.2,0-.2,0-.4.2-.5.3l-108.2,62.9c.1,0,.3-.2.5-.3,0,0,.1,0,.2,0,.2,0,.4-.1.6-.2.1,0,.2,0,.4-.1.3,0,.6-.2,1-.3.1,0,.2,0,.3,0,.5-.1,1.1-.3,1.7-.4.2,0,.4,0,.5-.1.5-.1,1-.2,1.6-.4.2,0,.5-.1.8-.2.5-.1,1.1-.2,1.7-.4.3,0,.6-.1,1-.2.7-.1,1.4-.3,2.2-.4.3,0,.5-.1.8-.2,1-.2,2.2-.4,3.3-.7.2,0,.4,0,.6-.1,1-.2,2.1-.4,3.1-.6.3,0,.7-.1,1-.2,1-.2,2.1-.4,3.2-.6.3,0,.7-.1,1-.2,1.4-.3,2.9-.5,4.5-.8.2,0,.4,0,.6-.1,1.4-.2,2.8-.5,4.2-.8.5,0,1-.2,1.4-.3,1.4-.2,2.7-.5,4.2-.7.4,0,.8-.1,1.2-.2,1.9-.3,3.8-.7,5.7-1,.2,0,.5,0,.7-.1,1.8-.3,3.6-.6,5.4-.9.6,0,1.1-.2,1.7-.3,1.6-.3,3.2-.6,4.9-.8.6-.1,1.2-.2,1.8-.3,2.2-.4,4.5-.8,6.9-1.2.1,0,.2,0,.3,0,2.2-.4,4.5-.8,6.9-1.2.7-.1,1.3-.2,2-.3,1.9-.3,3.8-.6,5.7-1,.8-.1,1.6-.3,2.3-.4,2.5-.4,5.1-.9,7.7-1.3.4,0,.9-.2,1.4-.2,2.4-.4,4.8-.8,7.2-1.2.7-.1,1.5-.2,2.2-.4,2.4-.4,4.7-.8,7.2-1.2.6-.1,1.2-.2,1.8-.3,3.1-.5,6.2-1,9.4-1.5.2,0,.4,0,.6-.1,3-.5,6-1,9.1-1.5.7-.1,1.5-.2,2.2-.4,2.8-.5,5.6-.9,8.5-1.4.7-.1,1.3-.2,2-.3,3.5-.6,7-1.1,10.7-1.7.1,0,.3,0,.4,0,3.3-.5,6.7-1.1,10.1-1.6,1.3-.2,2.6-.4,3.9-.6,2.4-.4,4.9-.8,7.4-1.2,1.3-.2,2.6-.4,3.9-.6,7.5-1.2,15.2-2.4,23.1-3.7,1.4-.2,2.8-.5,4.3-.7,2.9-.5,5.8-.9,8.8-1.4,1-.2,2.1-.3,3.1-.5,4.3-.7,8.6-1.4,13-2.1,3-.6,6-1.2,9.1-1.8,2.5-.5,4.9-1,7.4-1.4,2.9-.6,5.9-1.1,8.9-1.7Z"/>
      </g>
      <g class="cls-40">
        <g class="cls-53">
          <g class="cls-53">
            <g class="cls-46">
              <g class="cls-53">
                <path class="cls-35" d="M1166.8,741.2l-108.2-62.9c.2-.1.3-.2.5-.3l108.2,62.9c-.2,0-.3.1-.5.3"/>
                <path class="cls-12" d="M1167.3,741l-108.2-62.9c.1,0,.2,0,.3-.1l108.2,62.9c0,0-.2,0-.3.1"/>
                <path class="cls-3" d="M1167.6,740.9l-108.2-62.9c0,0,.1,0,.2,0l108.2,62.9c0,0-.1,0-.2,0"/>
                <path class="cls-30" d="M1167.8,740.8l-108.2-62.9s0,0,.1,0l108.2,62.9s0,0-.1,0"/>
                <path class="cls-25" d="M1167.9,740.8l-108.2-62.9s0,0,.1,0l108.2,62.9s0,0-.1,0"/>
                <path class="cls-6" d="M1168,740.8l-108.2-62.9s0,0,0,0l108.2,62.9s0,0,0,0"/>
                <path class="cls-34" d="M1168.1,740.8l-108.2-62.9s0,0,0,0l108.2,62.9s0,0,0,0"/>
                <path class="cls-26" d="M1168.2,740.9l-108.2-62.9s0,0,0,0l108.2,62.9s0,0,0,0"/>
                <path class="cls-27" d="M1168.3,740.9l-108.2-62.9s0,0,0,0l108.2,62.9s0,0,0,0"/>
                <polyline class="cls-21" points="1168.3 740.9 1060.2 678.1 1060.2 678.1 1168.3 740.9 1168.3 740.9"/>
              </g>
            </g>
          </g>
          <g class="cls-53">
            <g class="cls-49">
              <g class="cls-53">
                <path class="cls-12" d="M1165.7,337.3l-108.2-62.9c0,0,.1,0,.2,0l108.2,62.9c0,0-.1,0-.2,0"/>
                <path class="cls-3" d="M1165.9,337.3l-108.2-62.9c.1,0,.2,0,.3,0l108.2,62.9c-.1,0-.2,0-.3,0"/>
                <path class="cls-30" d="M1166.2,337.2l-108.2-62.9c0,0,.2,0,.2,0l108.2,62.9c0,0-.2,0-.2,0"/>
                <path class="cls-25" d="M1166.4,337.2l-108.2-62.9c0,0,.1,0,.2,0l108.2,62.9c0,0-.1,0-.2,0"/>
                <path class="cls-6" d="M1166.6,337.2l-108.2-62.9c0,0,0,0,.1,0l108.2,62.9s0,0-.1,0"/>
                <path class="cls-34" d="M1166.8,337.2l-108.2-62.9s0,0,.1,0l108.2,62.9s0,0-.1,0"/>
                <path class="cls-26" d="M1166.9,337.2l-108.2-62.9s0,0,.1,0l108.2,62.9s0,0-.1,0"/>
                <path class="cls-27" d="M1167,337.3l-108.2-62.9s0,0,0,0l108.2,62.9s0,0,0,0"/>
                <polyline class="cls-21" points="1167.1 337.3 1058.9 274.5 1058.9 274.5 1167.1 337.3 1167.1 337.3"/>
              </g>
            </g>
          </g>
          <g class="cls-53">
            <g class="cls-51">
              <g class="cls-53">
                <path class="cls-20" d="M600.3,1193.2l-108.2-62.9c-.4-.2-.5-.7-.5-1.6l108.2,62.9c0,.9.2,1.4.5,1.6"/>
              </g>
            </g>
          </g>
          <g class="cls-53">
            <g class="cls-52">
              <g class="cls-53">
                <path class="cls-20" d="M599.2,789.8l-108.2-62.9c-.4-.2-.5-.7-.5-1.6l108.2,62.9c0,.9.2,1.4.5,1.6"/>
              </g>
            </g>
          </g>
          <polygon class="cls-36" points="598.6 788.2 490.5 725.3 490.1 604.5 598.3 667.4 598.6 788.2"/>
          <polygon class="cls-31" points="600.2 663.8 492.1 601 1063.2 275.4 1165.7 337.3 600.2 663.8"/>
          <g class="cls-53">
            <g class="cls-50">
              <g class="cls-53">
                <path class="cls-37" d="M598.3,667.4l-108.2-62.9c0-.2,0-.4.1-.7l108.2,62.9c0,.2,0,.4-.1.7"/>
                <path class="cls-17" d="M598.4,666.7l-108.2-62.9c0-.1,0-.3.1-.4l108.2,62.9c0,.1,0,.3-.1.4"/>
                <path class="cls-32" d="M598.5,666.3l-108.2-62.9c0-.1,0-.2,0-.3l108.2,62.9c0,.1,0,.2,0,.3"/>
                <path class="cls-33" d="M598.6,666l-108.2-62.9c0,0,0-.2,0-.2l108.2,62.9c0,0,0,.2,0,.2"/>
                <path class="cls-21" d="M598.7,665.7l-108.2-62.9c0,0,0-.1,0-.2l108.2,62.9c0,0,0,.1,0,.2"/>
                <path class="cls-27" d="M598.8,665.5l-108.2-62.9c0,0,0-.1,0-.2l108.2,62.9c0,0,0,.1,0,.2"/>
                <path class="cls-26" d="M598.8,665.3l-108.2-62.9c0,0,0-.1,0-.2l108.2,62.9c0,0,0,.1,0,.2"/>
                <path class="cls-34" d="M598.9,665.2l-108.2-62.9c0,0,0-.1,0-.1l108.2,62.9s0,0,0,.1"/>
                <path class="cls-6" d="M599,665l-108.2-62.9s0,0,0-.1l108.2,62.9s0,0,0,.1"/>
                <path class="cls-25" d="M599.1,664.9l-108.2-62.9s0,0,0-.1l108.2,62.9s0,0,0,.1"/>
                <path class="cls-30" d="M599.2,664.8l-108.2-62.9s0,0,.1-.1l108.2,62.9s0,0-.1.1"/>
                <path class="cls-3" d="M599.3,664.6l-108.2-62.9c0,0,0-.1.1-.2l108.2,62.9s0,0-.1.2"/>
                <path class="cls-12" d="M599.4,664.5l-108.2-62.9c0,0,.1-.1.2-.2l108.2,62.9c0,0-.1.1-.2.2"/>
                <path class="cls-35" d="M599.6,664.3l-108.2-62.9c.2-.2.4-.3.6-.5l108.2,62.9c-.2.1-.4.3-.6.5"/>
              </g>
            </g>
          </g>
          <path class="cls-15" d="M1165.7,337.3c1.3-.4,1.9,0,1.9,1.3l.3,120.8c-6.9,11.2-70.5,95.7-190.8,253.4-118.2,158.1-179,238.7-182.3,241.6l372-213.3c1.3-.7,1.9-.5,1.9.9l.3,120.8c0,1.6-.6,2.8-1.9,3.6l-565.5,326.5c-1.3.7-1.9.3-1.9-1.3l-.3-121.8c3.9-7.2,81.6-110.5,233.2-310,41.9-56.8,87.7-117.7,137.6-182.7l-369.7,212.4c-1.3.7-1.9.3-1.9-1.4l-.3-120.8c.2-1.8.9-3,1.9-3.6l565.5-326.5Z"/>
        </g>
      </g>
      <path class="cls-31" d="M600,7.9L30.3,337.1l569.1,328.9,569.7-328.6L600,7.9ZM248.4,336.1l352.2-202.5,349.6,202.9-349.6,202.9-352.2-203.3Z"/>
      <polygon class="cls-14" points="602.5 261 602.5 133.6 950.1 336.5 839.9 400.5 602.5 261"/>
      <polygon class="cls-4" points="222.6 851.2 335.6 789.6 707.6 1005.8 599.5 1068.7 222.6 851.2"/>
      <path class="cls-14" d="M598.8,665.1c1.3,1-.5,1-.5,2.3l.9,122.1c-7,3.2-72.1,12.9-192.9,31.4-118.7,21.4-179.7,31.6-183.1,30.6l376.3,217.1c1.3.7,1.9,1.8,1.9,3.1l-.3,120.8c0,1.7-.7,2.1-1.9,1.4L29.3,866.5c-1.3-.7-1.9-1.9-1.9-3.6l.3-121.8c3.9-2.7,81.9-16.1,234.2-40.1,42.1-8.3,88.1-16.1,138.2-23.5L30.5,463.1c-1.3-.7-1.9-1.9-1.9-3.6l.3-120.8c.3-1.5.9-1.9,1.9-1.3l568,327.7Z"/>
      <g>
        <g>
          <polygon class="cls-31" points="1166.8 740.3 1168 739.6 796 523.3 687.9 586.2 952.6 740.1 688.3 891.6 796.4 954.5 1168.4 741.2 1166.8 740.3"/>
          <path class="cls-31" d="M602.3,1067.7c.1-.2.2-.3.4-.5.3-.5.7-1.1,1.2-1.7,0-.1.1-.2.2-.3.5-.8,1.1-1.6,1.8-2.5.2-.3.4-.6.6-.9.5-.7,1-1.4,1.5-2.2.3-.4.6-.9,1-1.3.5-.7,1.1-1.4,1.6-2.2.4-.5.8-1.1,1.2-1.7.6-.8,1.1-1.6,1.8-2.4.5-.6,1-1.3,1.5-2,.6-.9,1.3-1.7,2-2.6.5-.7,1-1.4,1.6-2.2.7-.9,1.4-1.9,2.2-2.9.6-.8,1.2-1.6,1.9-2.5.7-1,1.5-2.1,2.3-3.1.6-.9,1.3-1.7,2-2.6.9-1.2,1.8-2.5,2.8-3.7.7-.9,1.3-1.7,2-2.6,1.1-1.4,2.2-2.9,3.3-4.4.6-.8,1.2-1.5,1.8-2.4,1.4-1.9,2.9-3.8,4.3-5.8,1.1-1.5,2.2-3,3.4-4.5,1.2-1.6,2.4-3.2,3.6-4.8.9-1.1,1.8-2.3,2.6-3.5,1.3-1.7,2.5-3.3,3.8-5.1.8-1.1,1.7-2.2,2.5-3.3,1.4-1.9,2.9-3.8,4.3-5.8.9-1.2,1.8-2.4,2.7-3.6,1.4-1.9,2.9-3.8,4.3-5.7,1-1.3,2-2.7,3.1-4.1,1.5-2,3-4,4.5-6,1.1-1.4,2.2-2.9,3.3-4.4,1.4-1.9,2.9-3.9,4.4-5.8,1.3-1.7,2.6-3.4,3.9-5.1,1.6-2.1,3.2-4.2,4.8-6.3,1.1-1.5,2.2-2.9,3.3-4.4,2.1-2.7,4.2-5.6,6.3-8.4.8-1.1,1.7-2.2,2.5-3.3,2.7-3.6,5.5-7.2,8.3-10.9.3-.5.7-.9,1-1.4,3.2-4.2,6.4-8.5,9.7-12.9,1.1-1.4,2.1-2.8,3.2-4.2,2.2-2.9,4.4-5.9,6.7-8.9,1.4-1.8,2.8-3.7,4.2-5.6,2.1-2.8,4.3-5.6,6.5-8.5,1.3-1.7,2.7-3.5,4-5.3,2.3-3,4.6-6,6.9-9.1,1.5-1.9,3-3.9,4.5-5.9,2.4-3.1,4.7-6.3,7.2-9.4,1.2-1.6,2.5-3.3,3.7-4.9,2.8-3.7,5.6-7.4,8.5-11.2,1.1-1.5,2.3-3,3.4-4.5,2.7-3.6,5.5-7.3,8.3-11,1.5-2,3.1-4.1,4.6-6.1,2.6-3.4,5.2-6.9,7.8-10.3,1.5-1.9,2.9-3.8,4.4-5.8,3.6-4.8,7.3-9.7,11.1-14.6.6-.8,1.2-1.6,1.9-2.5,4.5-5.9,9.1-11.9,13.7-18.1,41.9-56.8,87.7-117.7,137.6-182.7l-108.2-62.9c-49.9,65-95.7,125.9-137.6,182.7-4.6,6.1-9.2,12.1-13.7,18.1-.6.8-1.2,1.6-1.9,2.5-3.7,4.9-7.4,9.8-11.1,14.6-1.5,2-2.9,3.9-4.4,5.8-2.6,3.5-5.3,6.9-7.8,10.3-1.6,2.1-3.1,4.1-4.6,6.1-2.8,3.7-5.6,7.4-8.3,11-1.2,1.5-2.3,3-3.4,4.5-2.9,3.8-5.7,7.5-8.5,11.2-1.2,1.6-2.5,3.3-3.7,4.9-2.4,3.2-4.8,6.3-7.2,9.4-1.5,2-3,4-4.5,5.9-2.3,3.1-4.6,6.1-6.9,9.1-1.3,1.8-2.7,3.5-4,5.3-2.2,2.9-4.3,5.7-6.5,8.5-1.4,1.9-2.8,3.7-4.2,5.6-2.3,3-4.5,5.9-6.7,8.9-1.1,1.4-2.2,2.9-3.2,4.2-3.3,4.4-6.6,8.7-9.7,12.9-.3.5-.7.9-1,1.4-2.8,3.7-5.6,7.4-8.3,10.9-.9,1.1-1.7,2.2-2.5,3.3-2.1,2.8-4.3,5.6-6.3,8.4-1.1,1.5-2.2,3-3.3,4.4-1.6,2.1-3.2,4.3-4.8,6.3-1.3,1.7-2.6,3.4-3.9,5.1-1.5,2-3,3.9-4.4,5.8-1.1,1.5-2.2,2.9-3.3,4.4-1.5,2-3,4-4.5,6-1,1.4-2.1,2.7-3.1,4.1-1.5,2-2.9,3.9-4.3,5.7-.9,1.2-1.8,2.4-2.7,3.6-1.5,2-2.9,3.9-4.3,5.8-.8,1.1-1.7,2.2-2.5,3.3-1.3,1.7-2.6,3.4-3.8,5.1-.9,1.2-1.8,2.4-2.6,3.5-1.2,1.7-2.4,3.2-3.6,4.8-1.1,1.5-2.3,3-3.4,4.5-1.5,2-2.9,3.9-4.3,5.8-.6.8-1.2,1.6-1.8,2.4-1.1,1.5-2.2,3-3.3,4.4-.7.9-1.3,1.8-2,2.6-.9,1.3-1.9,2.5-2.8,3.7-.7.9-1.3,1.8-2,2.6-.8,1.1-1.6,2.1-2.3,3.1-.6.9-1.2,1.7-1.9,2.5-.7,1-1.5,2-2.2,2.9-.5.7-1.1,1.5-1.6,2.2-.7.9-1.3,1.8-2,2.6-.5.7-1,1.3-1.5,2-.6.8-1.2,1.6-1.8,2.4-.4.6-.8,1.1-1.2,1.7-.6.8-1.1,1.5-1.6,2.2-.3.4-.7.9-1,1.3-.6.8-1.1,1.5-1.5,2.2-.2.3-.5.6-.6.9-.6.9-1.2,1.7-1.8,2.5,0,0,0,0,0,0,0,.1-.1.2-.2.3-.4.6-.8,1.2-1.2,1.7-.1.2-.2.4-.4.5-.2.3-.4.6-.5.8,0,0,0,.1-.1.2,0,0-.1.2-.2.3,0,.1-.2.2-.2.3-.1.2-.2.4-.3.5l108.2,62.9c.1-.2.3-.5.5-.8,0,0,.1-.2.2-.3.2-.3.4-.6.7-1Z"/>
          <path class="cls-31" d="M1167.6,337.5c1.3-.4,1.9,0,1.9,1.3v121.6c-6.9,11.2-70.5,95.7-190.8,253.4-118.2,158.1-179,238.7-182.3,241.6l372-213.3c1.3-.7,1.9-.5,1.9.9l.3,120.8c0,1.6-.6,2.8-1.9,3.6l-565.5,326.5c-1.3.7-1.9.3-1.9-1.3l-.3-121.8c3.9-7.2,81.6-110.5,233.2-310,41.9-56.8,87.7-117.7,137.6-182.7l-370.6,211.6c-1.3.7-1.9.3-1.9-1.4l-.6-120c.2-1.8.9-3,1.9-3.6l567-327.3Z"/>
        </g>
        <g>
          <polygon class="cls-31" points="1166.8 740.3 1168 739.6 796 523.3 687.9 586.2 952.6 740.1 688.3 891.6 796.4 954.5 1168.4 741.2 1166.8 740.3"/>
          <path class="cls-31" d="M602.3,1067.7c.1-.2.2-.3.4-.5.3-.5.7-1.1,1.2-1.7,0-.1.1-.2.2-.3.5-.8,1.1-1.6,1.8-2.5.2-.3.4-.6.6-.9.5-.7,1-1.4,1.5-2.2.3-.4.6-.9,1-1.3.5-.7,1.1-1.4,1.6-2.2.4-.5.8-1.1,1.2-1.7.6-.8,1.1-1.6,1.8-2.4.5-.6,1-1.3,1.5-2,.6-.9,1.3-1.7,2-2.6.5-.7,1-1.4,1.6-2.2.7-.9,1.4-1.9,2.2-2.9.6-.8,1.2-1.6,1.9-2.5.7-1,1.5-2.1,2.3-3.1.6-.9,1.3-1.7,2-2.6.9-1.2,1.8-2.5,2.8-3.7.7-.9,1.3-1.7,2-2.6,1.1-1.4,2.2-2.9,3.3-4.4.6-.8,1.2-1.5,1.8-2.4,1.4-1.9,2.9-3.8,4.3-5.8,1.1-1.5,2.2-3,3.4-4.5,1.2-1.6,2.4-3.2,3.6-4.8.9-1.1,1.8-2.3,2.6-3.5,1.3-1.7,2.5-3.3,3.8-5.1.8-1.1,1.7-2.2,2.5-3.3,1.4-1.9,2.9-3.8,4.3-5.8.9-1.2,1.8-2.4,2.7-3.6,1.4-1.9,2.9-3.8,4.3-5.7,1-1.3,2-2.7,3.1-4.1,1.5-2,3-4,4.5-6,1.1-1.4,2.2-2.9,3.3-4.4,1.4-1.9,2.9-3.9,4.4-5.8,1.3-1.7,2.6-3.4,3.9-5.1,1.6-2.1,3.2-4.2,4.8-6.3,1.1-1.5,2.2-2.9,3.3-4.4,2.1-2.7,4.2-5.6,6.3-8.4.8-1.1,1.7-2.2,2.5-3.3,2.7-3.6,5.5-7.2,8.3-10.9.3-.5.7-.9,1-1.4,3.2-4.2,6.4-8.5,9.7-12.9,1.1-1.4,2.1-2.8,3.2-4.2,2.2-2.9,4.4-5.9,6.7-8.9,1.4-1.8,2.8-3.7,4.2-5.6,2.1-2.8,4.3-5.6,6.5-8.5,1.3-1.7,2.7-3.5,4-5.3,2.3-3,4.6-6,6.9-9.1,1.5-1.9,3-3.9,4.5-5.9,2.4-3.1,4.7-6.3,7.2-9.4,1.2-1.6,2.5-3.3,3.7-4.9,2.8-3.7,5.6-7.4,8.5-11.2,1.1-1.5,2.3-3,3.4-4.5,2.7-3.6,5.5-7.3,8.3-11,1.5-2,3.1-4.1,4.6-6.1,2.6-3.4,5.2-6.9,7.8-10.3,1.5-1.9,2.9-3.8,4.4-5.8,3.6-4.8,7.3-9.7,11.1-14.6.6-.8,1.2-1.6,1.9-2.5,4.5-5.9,9.1-11.9,13.7-18.1,41.9-56.8,87.7-117.7,137.6-182.7l-108.2-62.9c-49.9,65-95.7,125.9-137.6,182.7-4.6,6.1-9.2,12.1-13.7,18.1-.6.8-1.2,1.6-1.9,2.5-3.7,4.9-7.4,9.8-11.1,14.6-1.5,2-2.9,3.9-4.4,5.8-2.6,3.5-5.3,6.9-7.8,10.3-1.6,2.1-3.1,4.1-4.6,6.1-2.8,3.7-5.6,7.4-8.3,11-1.2,1.5-2.3,3-3.4,4.5-2.9,3.8-5.7,7.5-8.5,11.2-1.2,1.6-2.5,3.3-3.7,4.9-2.4,3.2-4.8,6.3-7.2,9.4-1.5,2-3,4-4.5,5.9-2.3,3.1-4.6,6.1-6.9,9.1-1.3,1.8-2.7,3.5-4,5.3-2.2,2.9-4.3,5.7-6.5,8.5-1.4,1.9-2.8,3.7-4.2,5.6-2.3,3-4.5,5.9-6.7,8.9-1.1,1.4-2.2,2.9-3.2,4.2-3.3,4.4-6.6,8.7-9.7,12.9-.3.5-.7.9-1,1.4-2.8,3.7-5.6,7.4-8.3,10.9-.9,1.1-1.7,2.2-2.5,3.3-2.1,2.8-4.3,5.6-6.3,8.4-1.1,1.5-2.2,3-3.3,4.4-1.6,2.1-3.2,4.3-4.8,6.3-1.3,1.7-2.6,3.4-3.9,5.1-1.5,2-3,3.9-4.4,5.8-1.1,1.5-2.2,2.9-3.3,4.4-1.5,2-3,4-4.5,6-1,1.4-2.1,2.7-3.1,4.1-1.5,2-2.9,3.9-4.3,5.7-.9,1.2-1.8,2.4-2.7,3.6-1.5,2-2.9,3.9-4.3,5.8-.8,1.1-1.7,2.2-2.5,3.3-1.3,1.7-2.6,3.4-3.8,5.1-.9,1.2-1.8,2.4-2.6,3.5-1.2,1.7-2.4,3.2-3.6,4.8-1.1,1.5-2.3,3-3.4,4.5-1.5,2-2.9,3.9-4.3,5.8-.6.8-1.2,1.6-1.8,2.4-1.1,1.5-2.2,3-3.3,4.4-.7.9-1.3,1.8-2,2.6-.9,1.3-1.9,2.5-2.8,3.7-.7.9-1.3,1.8-2,2.6-.8,1.1-1.6,2.1-2.3,3.1-.6.9-1.2,1.7-1.9,2.5-.7,1-1.5,2-2.2,2.9-.5.7-1.1,1.5-1.6,2.2-.7.9-1.3,1.8-2,2.6-.5.7-1,1.3-1.5,2-.6.8-1.2,1.6-1.8,2.4-.4.6-.8,1.1-1.2,1.7-.6.8-1.1,1.5-1.6,2.2-.3.4-.7.9-1,1.3-.6.8-1.1,1.5-1.5,2.2-.2.3-.5.6-.6.9-.6.9-1.2,1.7-1.8,2.5,0,0,0,0,0,0,0,.1-.1.2-.2.3-.4.6-.8,1.2-1.2,1.7-.1.2-.2.4-.4.5-.2.3-.4.6-.5.8,0,0,0,.1-.1.2,0,0-.1.2-.2.3,0,.1-.2.2-.2.3-.1.2-.2.4-.3.5l108.2,62.9c.1-.2.3-.5.5-.8,0,0,.1-.2.2-.3.2-.3.4-.6.7-1Z"/>
          <path class="cls-8" d="M1167.6,337.5c1.3-.4,1.9,0,1.9,1.3v121.6c-6.9,11.2-70.5,95.7-190.8,253.4-118.2,158.1-179,238.7-182.3,241.6l372-213.3c1.3-.7,1.9-.5,1.9.9l.3,120.8c0,1.6-.6,2.8-1.9,3.6l-565.5,326.5c-1.3.7-1.9.3-1.9-1.3l-.3-121.8c3.9-7.2,81.6-110.5,233.2-310,41.9-56.8,87.7-117.7,137.6-182.7l-370.6,211.6c-1.3.7-1.9.3-1.9-1.4l-.6-120c.2-1.8.9-3,1.9-3.6l567-327.3Z"/>
        </g>
      </g>
    </g>
  </g>
</svg>