<svg width="24" height="24" viewBox="0 0 24 24" fill="none" xmlns="http://www.w3.org/2000/svg">
<path fill-rule="evenodd" clip-rule="evenodd" d="M22.7914 0L24 1.20857L22.2857 2.92286V20.5714C22.2857 21.5143 21.5143 22.2857 20.5714 22.2857H2.92286L1.20857 24L0 22.7914L22.7914 0ZM4.63714 20.5714H20.5714V18.8571L16.2857 14.5714L14.9229 15.9343C14.2543 16.6029 13.1657 16.6029 12.4971 15.9343L10.8857 14.3229L4.63714 20.5714ZM17.4943 13.3543L20.5629 16.4229V4.63714L12.0943 13.1057L13.7057 14.7171L15.0686 13.3543C15.7371 12.6857 16.8257 12.6857 17.4943 13.3543ZM3.42815 15.4286V17.1429H1.71387V3.42857C1.71387 2.48571 2.4853 1.71429 3.42815 1.71429H17.1424V3.42857H3.42815V13.0029L6.5053 9.92571C7.17387 9.25714 8.26244 9.25714 8.93101 9.92571L9.6853 10.68L8.46815 11.8971L7.71387 11.1429L3.42815 15.4286Z" fill="black"/>
</svg>
